<?xml version="1.0" encoding="utf-8"?>
<!-- Generator: Adobe Illustrator 25.3.1, SVG Export Plug-In . SVG Version: 6.00 Build 0)  -->
<svg version="1.1" id="Layer_1" xmlns="http://www.w3.org/2000/svg" xmlns:xlink="http://www.w3.org/1999/xlink" x="0px" y="0px"
	 viewBox="0 0 151.7 155.2" style="enable-background:new 0 0 151.7 155.2;" xml:space="preserve">
<style type="text/css">
	.st0{fill:#D09BAD;}
	.st1{fill:#FFFFFF;}
</style>
<g>
	<path class="st0" d="M123.4,99.8h-95c-12.3,0-22.2-10-22.2-22.2v0c0-12.3,10-22.2,22.2-22.2h95c12.3,0,22.2,10,22.2,22.2v0
		C145.6,89.9,135.6,99.8,123.4,99.8z"/>
	<g>
		<path class="st1" d="M29.3,77.8v7.3h-4v-19h5.5c2.6,0,4.5,0.5,5.7,1.4c1.2,0.9,1.9,2.4,1.9,4.3c0,1.1-0.3,2.1-0.9,3
			c-0.6,0.9-1.5,1.6-2.6,2c2.9,4.3,4.7,7,5.6,8.3H36l-4.5-7.3H29.3z M29.3,74.5h1.3c1.3,0,2.2-0.2,2.8-0.6c0.6-0.4,0.9-1.1,0.9-2
			c0-0.9-0.3-1.5-0.9-1.9c-0.6-0.4-1.6-0.6-2.9-0.6h-1.2V74.5z"/>
		<path class="st1" d="M49.1,85.4c-2.3,0-4.2-0.6-5.5-1.9s-2-3.1-2-5.5c0-2.4,0.6-4.3,1.8-5.7c1.2-1.3,2.9-2,5.1-2
			c2.1,0,3.7,0.6,4.8,1.8c1.1,1.2,1.7,2.8,1.7,4.9v1.9h-9.4c0,1.1,0.4,2,1,2.6c0.6,0.6,1.5,0.9,2.6,0.9c0.9,0,1.7-0.1,2.5-0.3
			c0.8-0.2,1.6-0.5,2.4-0.9v3.1c-0.7,0.3-1.4,0.6-2.2,0.8C51.2,85.3,50.3,85.4,49.1,85.4z M48.6,73.1c-0.8,0-1.5,0.3-2,0.8
			c-0.5,0.5-0.8,1.3-0.8,2.3h5.6c0-1-0.3-1.7-0.8-2.3S49.4,73.1,48.6,73.1z"/>
		<path class="st1" d="M68.4,80.8c0,1.5-0.5,2.6-1.6,3.4s-2.6,1.2-4.6,1.2c-1.1,0-2-0.1-2.7-0.2c-0.7-0.1-1.4-0.4-2.1-0.6v-3.3
			c0.7,0.3,1.6,0.6,2.5,0.9c0.9,0.2,1.7,0.4,2.4,0.4c1.4,0,2.2-0.4,2.2-1.2c0-0.3-0.1-0.6-0.3-0.8s-0.5-0.4-1-0.7
			c-0.5-0.2-1.1-0.5-1.9-0.9c-1.1-0.5-1.9-0.9-2.5-1.3c-0.5-0.4-0.9-0.9-1.1-1.4c-0.2-0.5-0.4-1.2-0.4-1.9c0-1.3,0.5-2.3,1.5-3
			c1-0.7,2.4-1.1,4.3-1.1c1.8,0,3.5,0.4,5.1,1.1l-1.2,2.9c-0.7-0.3-1.4-0.6-2-0.8c-0.6-0.2-1.3-0.3-1.9-0.3c-1.2,0-1.8,0.3-1.8,0.9
			c0,0.4,0.2,0.7,0.6,0.9c0.4,0.3,1.2,0.6,2.5,1.2c1.1,0.5,2,0.9,2.5,1.3c0.5,0.4,0.9,0.9,1.2,1.4C68.3,79.5,68.4,80.1,68.4,80.8z"
			/>
		<path class="st1" d="M81.8,85.1l-0.5-1.9h-0.2c-0.4,0.7-1,1.2-1.8,1.6c-0.8,0.4-1.7,0.6-2.7,0.6c-1.7,0-3-0.5-3.9-1.4
			c-0.9-0.9-1.3-2.2-1.3-3.9v-9.5h4v8.5c0,1,0.2,1.8,0.6,2.4c0.4,0.5,1,0.8,1.8,0.8c1.1,0,1.9-0.4,2.4-1.1c0.5-0.7,0.7-2,0.7-3.7
			v-6.8h4v14.5H81.8z"/>
		<path class="st1" d="M102,85.1h-4v-8.5c0-1-0.2-1.8-0.5-2.4c-0.4-0.5-0.9-0.8-1.7-0.8c-1,0-1.8,0.4-2.2,1.1
			c-0.5,0.7-0.7,2-0.7,3.7v6.8h-4V70.6h3l0.5,1.9h0.2c0.4-0.7,1-1.2,1.7-1.6c0.7-0.4,1.6-0.6,2.5-0.6c2.2,0,3.6,0.7,4.4,2.1h0.4
			c0.4-0.7,1-1.2,1.7-1.6c0.8-0.4,1.6-0.6,2.6-0.6c1.6,0,2.9,0.4,3.7,1.3c0.8,0.8,1.3,2.2,1.3,4.1v9.5h-4v-8.5c0-1-0.2-1.8-0.5-2.4
			c-0.4-0.5-0.9-0.8-1.7-0.8c-1,0-1.7,0.3-2.2,1c-0.5,0.7-0.7,1.8-0.7,3.3V85.1z"/>
		<path class="st1" d="M121.8,85.4c-2.3,0-4.2-0.6-5.5-1.9c-1.3-1.3-2-3.1-2-5.5c0-2.4,0.6-4.3,1.8-5.7c1.2-1.3,2.9-2,5.1-2
			c2.1,0,3.7,0.6,4.8,1.8c1.1,1.2,1.7,2.8,1.7,4.9v1.9h-9.4c0,1.1,0.4,2,1,2.6s1.5,0.9,2.6,0.9c0.9,0,1.7-0.1,2.5-0.3
			c0.8-0.2,1.6-0.5,2.4-0.9v3.1c-0.7,0.3-1.4,0.6-2.2,0.8S122.9,85.4,121.8,85.4z M121.2,73.1c-0.8,0-1.5,0.3-2,0.8
			c-0.5,0.5-0.8,1.3-0.8,2.3h5.6c0-1-0.3-1.7-0.8-2.3S122,73.1,121.2,73.1z"/>
	</g>
</g>
</svg>
